<?xml version="1.0" encoding="UTF-8"?>
<svg width="14px" height="14px" viewBox="0 0 14 14" version="1.1" xmlns="http://www.w3.org/2000/svg" xmlns:xlink="http://www.w3.org/1999/xlink">
    <!-- Generator: Sketch 51.3 (57544) - http://www.bohemiancoding.com/sketch -->
    <title>Icon/14/settings</title>
    <desc>Created with Sketch.</desc>
    <defs>
        <path d="M7.00155059,9.4501707 C5.61285518,9.4501707 4.48271216,8.35083726 4.48271216,7 C4.48271216,5.64916274 5.61285518,4.5498293 7.00155059,4.5498293 C8.39024599,4.5498293 9.52038901,5.64916274 9.52038901,7 C9.52038901,8.35083726 8.39024599,9.4501707 7.00155059,9.4501707 L7.00155059,9.4501707 Z M12.3480864,7.68622988 C12.3773344,7.46203869 12.398393,7.2378475 12.398393,7 C12.398393,6.7621525 12.3773344,6.53796131 12.3480864,6.31377012 L13.866643,5.15981141 C14.0035236,5.05397496 14.0397912,4.86506259 13.9532171,4.71142904 L12.5142151,2.28970899 C12.427641,2.13493741 12.2334342,2.07917412 12.074325,2.13493741 L10.283177,2.83482361 C9.90880255,2.55486913 9.50518004,2.32384978 9.06645993,2.14973175 L8.7938685,0.294748821 C8.77164001,0.126320923 8.62072029,0 8.44055256,0 L5.56254861,0 C5.38238088,0 5.23146116,0.126320923 5.20923267,0.294748821 L4.93664124,2.14973175 C4.49792113,2.32384978 4.09429862,2.56283531 3.71992412,2.83482361 L1.92877613,2.13493741 C1.76264745,2.07234596 1.5754602,2.13493741 1.4888861,2.28970899 L0.0498841179,4.71142904 C-0.0437095067,4.86506259 -0.00042245529,5.05397496 0.136458221,5.15981141 L1.65501478,6.31377012 C1.62576677,6.53796131 1.60470821,6.76898065 1.60470821,7 C1.60470821,7.23101935 1.62576677,7.46203869 1.65501478,7.68622988 L0.136458221,8.84132661 C-0.00042245529,8.94602504 -0.0366899848,9.13493741 0.0498841179,9.28970899 L1.4888861,11.711429 C1.5754602,11.8650626 1.76966697,11.9208259 1.92877613,11.8650626 L3.71992412,11.1651764 C4.09429862,11.4451309 4.49792113,11.6761502 4.93664124,11.8514063 L5.20923267,13.7063892 C5.23146116,13.8736791 5.38238088,14 5.56254861,14 L8.44055256,14 C8.62072029,14 8.77164001,13.8736791 8.7938685,13.7063892 L9.06645993,11.8514063 C9.50518004,11.6761502 9.90880255,11.4383027 10.283177,11.1651764 L12.074325,11.8650626 C12.2404537,11.927654 12.427641,11.8650626 12.5142151,11.711429 L13.9532171,9.28970899 C14.0397912,9.13493741 14.0035236,8.94602504 13.866643,8.84132661 L12.3480864,7.68622988 Z" id="path-1"></path>
    </defs>
    <g id="Enterprise" stroke="none" stroke-width="1" fill="none" fill-rule="evenodd">
        <g id="Ent_XS_Window_Sent" transform="translate(-291.000000, -85.000000)">
            <g id="Icon/14/settings" transform="translate(291.000000, 85.000000)">
                <mask id="mask-2" fill="white">
                    <use xlink:href="#path-1"></use>
                </mask>
                <use id="settings" fill="#A0A0A0" fill-rule="evenodd" xlink:href="#path-1"></use>
                <g id="Color/Avocado-Green" mask="url(#mask-2)" fill="#37A000" fill-rule="evenodd">
                    <rect id="color" x="0" y="0" width="14" height="14"></rect>
                </g>
            </g>
        </g>
    </g>
</svg>